<svg xmlns="http://www.w3.org/2000/svg" width="391.017" height="52" viewBox="0 0 391.017 52">
  <g id="Group_591" data-name="Group 591" transform="translate(-140.983 -41)">
    <text id="Child_Care_Center" data-name="Child Care Center" transform="translate(211 82)" fill="#feb8cc" font-size="38" font-family="OpenSans-Semibold, Open Sans" font-weight="600"><tspan x="0" y="0">Child Care Center</tspan></text>
    <g id="playground-playing_field-coronavirus-virus-outbreck" data-name="playground-playing field-coronavirus-virus-outbreck" transform="translate(138.983 39)">
      <path id="Path_3" data-name="Path 3" d="M54.848,54.232H50.54L39.71,46.495a5.181,5.181,0,0,1-1.792-2.283l-2.456-6.126A1.723,1.723,0,0,0,33.868,37H29v3.446h3.446L35.3,46.865a5.169,5.169,0,0,0,1.8,2.163l12.579,8.65h5.17a1.723,1.723,0,1,0,0-3.446Z" transform="translate(-3.737 -4.844)" fill="#84d3ec"/>
      <path id="Path_4" data-name="Path 4" d="M38.446,19.339h8.616a3.446,3.446,0,1,0,0-6.893,1.728,1.728,0,0,0-1.723-1.723,1.465,1.465,0,0,0-.439.069,3.417,3.417,0,0,0-2.559-1.758A2.551,2.551,0,0,0,41.893,9a3.446,3.446,0,0,0-3.446,3.446,3.446,3.446,0,1,0,0,6.893Z" transform="translate(-4.568 -0.969)" fill="#84d3ec"/>
      <path id="Path_5" data-name="Path 5" d="M25.4,13.339h1.723L15.062,3,3,13.339H25.4Z" transform="translate(-0.138 -0.138)" fill="#84d3ec"/>
      <path id="Path_6" data-name="Path 6" d="M25,41h3.446V58.232H25Z" transform="translate(-3.183 -5.398)" fill="#84d3ec"/>
      <path id="Path_7" data-name="Path 7" d="M16.446,25A3.446,3.446,0,0,0,13,28.446V38.785h6.893V28.446A3.442,3.442,0,0,0,16.446,25Z" transform="translate(-1.523 -3.183)" fill="#84d3ec"/>
      <path id="Path_8" data-name="Path 8" d="M5,41H8.446V58.232H5Z" transform="translate(-0.415 -5.398)" fill="#84d3ec"/>
      <g id="Group_3" data-name="Group 3" transform="translate(2 2)">
        <path id="Path_9" data-name="Path 9" d="M51.111,48.526H47.078L36.472,40.952a4.261,4.261,0,0,1-1.491-1.9l-2.456-6.135a2.574,2.574,0,0,0-2.4-1.62H26.124V14.062h.862a.862.862,0,0,0,.56-1.516L15.484,2.207a.862.862,0,0,0-1.12,0L2.3,12.546a.862.862,0,0,0,.56,1.516h.862V52.834a.862.862,0,0,0,.862.862H8.031a.862.862,0,0,0,.862-.862V36.464h1.723v16.37h1.723V50.249h5.17v2.585h1.723V36.464h1.723v16.37a.862.862,0,0,0,.862.862h3.446a.862.862,0,0,0,.862-.862V36.464h2.025l2.628,5.911a5.945,5.945,0,0,0,2.094,2.516L45.45,53.54a.851.851,0,0,0,.491.155h5.17a2.585,2.585,0,1,0,0-5.17ZM7.17,51.972H5.446V36.464H7.17Zm10.339-3.446h-5.17V46.8h5.17Zm0-3.446h-5.17V43.356h5.17Zm0-3.446h-5.17V39.91h5.17Zm0-3.446h-5.17V36.464h5.17Zm0-3.446h-5.17V25.263a2.585,2.585,0,1,1,5.17,0ZM24.4,51.972H22.678V36.464H24.4Zm0-17.232h-5.17V25.263a4.308,4.308,0,1,0-8.616,0V34.74H5.446V14.062H24.4ZM5.188,12.339,14.924,4l9.736,8.34ZM51.111,51.972h-4.9l-12.364-8.5a4.324,4.324,0,0,1-1.491-1.8l-2.86-6.427a.85.85,0,0,0-.784-.508H26.124V33.017h4.006a.85.85,0,0,1,.793.543l2.456,6.126a5.959,5.959,0,0,0,2.094,2.662L46.3,50.085a.862.862,0,0,0,.5.164h4.308a.862.862,0,0,1,0,1.723Z" transform="translate(-2 -2)" fill="#fff"/>
        <path id="Path_10" data-name="Path 10" d="M54.545,5.507a2.558,2.558,0,0,0-2.473-1.783A4.3,4.3,0,0,0,44.4,5.515,4.32,4.32,0,0,0,41.759,7.17H41.75a4.326,4.326,0,0,0-4.239,3.515,4.308,4.308,0,0,0,.793,8.547H46.92a4.308,4.308,0,0,0,4.308-4.308,4.062,4.062,0,0,0-.095-.862h2.68a4.308,4.308,0,0,0,.732-8.556Zm-7.625,12H38.3a2.585,2.585,0,0,1,0-5.17.862.862,0,0,0,.862-.862A2.573,2.573,0,0,1,44,10.237a.862.862,0,0,0,.974.414.834.834,0,0,1,.224-.034.862.862,0,0,1,.862.862.862.862,0,0,0,.862.862,2.585,2.585,0,0,1,0,5.17Zm6.893-5.17H50.349a4.308,4.308,0,0,0-2.7-1.663A2.585,2.585,0,0,0,45.2,8.893h-.017a4.434,4.434,0,0,0-1.456-1.232A2.54,2.54,0,0,1,45.2,7.17a.862.862,0,0,0,.862-.862A2.575,2.575,0,0,1,50.9,5.076a.862.862,0,0,0,1.008.4.45.45,0,0,1,.181-.034.862.862,0,0,1,.862.862.862.862,0,0,0,.862.862,2.585,2.585,0,1,1,0,5.17Z" transform="translate(-6.425 -2)" fill="#fff"/>
        <path id="Path_11" data-name="Path 11" d="M51,33h1.723v1.723H51Z" transform="translate(-8.782 -6.291)" fill="#fff"/>
        <path id="Path_12" data-name="Path 12" d="M57.507,30.891a1.717,1.717,0,0,0-1.484.862H54.836a4.274,4.274,0,0,0-.631-1.51l.843-.843a1.746,1.746,0,0,0,.439.064,1.723,1.723,0,1,0-1.723-1.723,1.741,1.741,0,0,0,.064.439l-.843.843a4.274,4.274,0,0,0-1.51-.63V27.205a1.723,1.723,0,1,0-1.723,0v1.187a4.274,4.274,0,0,0-1.51.631l-.843-.843a1.747,1.747,0,0,0,.064-.439,1.723,1.723,0,1,0-1.723,1.723,1.741,1.741,0,0,0,.439-.064l.843.843a4.274,4.274,0,0,0-.63,1.51H45.205a1.723,1.723,0,1,0,0,1.723h1.187a4.274,4.274,0,0,0,.631,1.51l-.843.843a1.747,1.747,0,0,0-.439-.064,1.723,1.723,0,1,0,1.723,1.723,1.741,1.741,0,0,0-.064-.439l.843-.843a4.274,4.274,0,0,0,1.51.63v1.188a1.723,1.723,0,1,0,1.723,0V36.836a4.274,4.274,0,0,0,1.51-.631l.843.843a1.746,1.746,0,0,0-.064.439,1.723,1.723,0,1,0,1.723-1.723,1.741,1.741,0,0,0-.439.064l-.843-.843a4.274,4.274,0,0,0,.63-1.51h1.188a1.723,1.723,0,1,0,1.483-2.585ZM50.614,35.2A2.585,2.585,0,1,1,53.2,32.615,2.585,2.585,0,0,1,50.614,35.2Z" transform="translate(-7.535 -5.043)" fill="#fff"/>
        <path id="Path_13" data-name="Path 13" d="M27,2h1.723V3.723H27Z" transform="translate(-5.46 -2)" fill="#fff"/>
        <path id="Path_14" data-name="Path 14" d="M31,4h1.723V5.723H31Z" transform="translate(-6.014 -2.277)" fill="#fff"/>
        <path id="Path_15" data-name="Path 15" d="M35,2h1.723V3.723H35Z" transform="translate(-6.567 -2)" fill="#fff"/>
        <path id="Path_16" data-name="Path 16" d="M27,6h1.723V7.723H27Z" transform="translate(-5.46 -2.553)" fill="#fff"/>
        <path id="Path_17" data-name="Path 17" d="M35,6h1.723V7.723H35Z" transform="translate(-6.567 -2.553)" fill="#fff"/>
        <path id="Path_18" data-name="Path 18" d="M52,46h1.723v1.723H52Z" transform="translate(-8.92 -8.09)" fill="#fff"/>
        <path id="Path_19" data-name="Path 19" d="M56,48h1.723v1.723H56Z" transform="translate(-9.474 -8.367)" fill="#fff"/>
        <path id="Path_20" data-name="Path 20" d="M60,46h1.723v1.723H60Z" transform="translate(-10.028 -8.09)" fill="#fff"/>
        <path id="Path_21" data-name="Path 21" d="M52,50h1.723v1.723H52Z" transform="translate(-8.92 -8.644)" fill="#fff"/>
        <path id="Path_22" data-name="Path 22" d="M60,50h1.723v1.723H60Z" transform="translate(-10.028 -8.644)" fill="#fff"/>
        <path id="Path_23" data-name="Path 23" d="M32,24h1.723v1.723H32Z" transform="translate(-6.152 -5.045)" fill="#fff"/>
        <path id="Path_24" data-name="Path 24" d="M36,26h1.723v1.723H36Z" transform="translate(-6.706 -5.322)" fill="#fff"/>
        <path id="Path_25" data-name="Path 25" d="M36,30h1.723v1.723H36Z" transform="translate(-6.706 -5.875)" fill="#fff"/>
        <path id="Path_26" data-name="Path 26" d="M40,24h1.723v1.723H40Z" transform="translate(-7.26 -5.045)" fill="#fff"/>
        <path id="Path_27" data-name="Path 27" d="M32,28h1.723v1.723H32Z" transform="translate(-6.152 -5.598)" fill="#fff"/>
        <path id="Path_28" data-name="Path 28" d="M32,32h1.723v1.723H32Z" transform="translate(-6.152 -6.152)" fill="#fff"/>
        <path id="Path_29" data-name="Path 29" d="M40,28h1.723v1.723H40Z" transform="translate(-7.26 -5.598)" fill="#fff"/>
      </g>
    </g>
  </g>
</svg>
