<svg xmlns="http://www.w3.org/2000/svg" xmlns:xlink="http://www.w3.org/1999/xlink" width="1920" height="1176" viewBox="0 0 1920 1176">
  <defs>
    <clipPath id="clip-path">
      <rect id="Rectangle_112" data-name="Rectangle 112" width="1920" height="1176" transform="translate(0 3576)" fill="#fff"/>
    </clipPath>
  </defs>
  <g id="Mask_Group_2" data-name="Mask Group 2" transform="translate(0 -3576)" clip-path="url(#clip-path)">
    <g id="Group_161" data-name="Group 161" transform="translate(0 116)">
      <rect id="Rectangle_4" data-name="Rectangle 4" width="1929" height="862" transform="translate(-9.37 3598)" fill="#88d4f2"/>
      <g id="Group_85" data-name="Group 85" transform="translate(1940.26 5554.234) rotate(180)">
        <path id="Path_257" data-name="Path 257" d="M990.273,591.357A33.478,33.478,0,0,0,997.234,571c0-19.4-16.741-35.117-37.393-35.117a39.365,39.365,0,0,0-14.331,2.683,34.263,34.263,0,0,0-22.623-10.018,44.578,44.578,0,0,0,.891-8.826c0-26.014-22.46-47.1-50.165-47.1-19.444,0-36.292,10.395-44.618,25.583a42.445,42.445,0,0,0-25.218-8.175c-16.976,0-31.535,9.708-37.733,23.534a34.587,34.587,0,0,0-14.64,5.207c-2.113-16.192-16.779-28.741-34.592-28.741a37.2,37.2,0,0,0-6.207.55c-4.961-13.523-18.6-23.258-34.683-23.258-19.491,0-35.386,14.274-36.591,32.292a35.936,35.936,0,0,0-24.653-9.584,35.269,35.269,0,0,0-30.535,16.931,35.394,35.394,0,0,0-30.858,3.38c-4.972-20.624-24.593-36.032-48.065-36.032-22.649,0-41.718,14.35-47.492,33.9a34.508,34.508,0,0,0-8-2.648A69.581,69.581,0,0,0,406.557,490.8c-30.453,0-56.16,19.027-64.415,45.1a35.043,35.043,0,0,0-3.5,6.293c.039-.576.093-1.149.093-1.734,0-15.013-12.958-27.183-28.946-27.183a29.838,29.838,0,0,0-20.246,7.77,36.822,36.822,0,0,0,.828-7.77c0-21.523-18.581-38.973-41.5-38.973A42.726,42.726,0,0,0,219.251,486a31.266,31.266,0,0,0,2.3-11.686c0-18.327-15.823-33.188-35.343-33.188s-35.343,14.861-35.343,33.188l0,.056a41.518,41.518,0,0,0-23.254-7.043c-22.088,0-39.993,16.816-39.993,37.555,0,.956.078,1.892.153,2.826-20.983,2.005-37.356,18.648-37.356,38.877a36.856,36.856,0,0,0,1.83,11.488c-9.451,4.194-16.009,13.2-16.009,23.672a24.7,24.7,0,0,0,1.964,9.614Z" transform="translate(-52.234 509.877)" fill="#88d4f2"/>
        <path id="Path_258" data-name="Path 258" d="M1141.43,591.357A30.672,30.672,0,0,0,1149.494,571c0-19.4-19.394-35.117-43.317-35.117a52.026,52.026,0,0,0-16.6,2.683,42.807,42.807,0,0,0-26.208-10.018,38.717,38.717,0,0,0,1.032-8.826c0-26.014-26.018-47.1-58.113-47.1-22.525,0-42.042,10.395-51.687,25.583a54.565,54.565,0,0,0-29.214-8.175c-19.665,0-36.532,9.708-43.712,23.534a44.3,44.3,0,0,0-16.959,5.207c-2.448-16.192-19.437-28.741-40.072-28.741a49.744,49.744,0,0,0-7.191.55c-5.747-13.523-21.544-23.258-40.178-23.258-22.579,0-40.992,14.274-42.389,32.292-7.309-5.921-17.407-9.584-28.559-9.584-15.233,0-28.485,6.84-35.372,16.931a46.923,46.923,0,0,0-13.828-2.084,45.473,45.473,0,0,0-21.919,5.464c-5.76-20.624-28.49-36.032-55.68-36.032-26.238,0-48.328,14.35-55.016,33.9a44.531,44.531,0,0,0-9.268-2.648c-13.528-9.2-30.968-14.755-50.013-14.755-35.278,0-65.058,19.027-74.621,45.1a34,34,0,0,0-4.051,6.293c.045-.576.108-1.149.108-1.734,0-15.013-15.011-27.183-33.532-27.183a37.789,37.789,0,0,0-23.454,7.77,32,32,0,0,0,.959-7.77c0-21.523-21.525-38.973-48.078-38.973-13.44,0-25.587,4.477-34.312,11.686a27.586,27.586,0,0,0,2.659-11.686c0-18.327-18.329-33.188-40.943-33.188s-40.943,14.861-40.943,33.188l0,.056a53.643,53.643,0,0,0-26.938-7.043c-25.587,0-46.33,16.816-46.33,37.555,0,.956.09,1.892.177,2.826-24.307,2.005-43.274,18.648-43.274,38.877a32.287,32.287,0,0,0,2.12,11.488c-10.949,4.194-18.545,13.2-18.545,23.672a21.831,21.831,0,0,0,2.276,9.614Z" transform="translate(827.766 509.877)" fill="#88d4f2"/>
      </g>
      <g id="Group_44" data-name="Group 44" transform="translate(-21 2509)">
        <path id="Path_257-2" data-name="Path 257" d="M990.273,591.357A33.478,33.478,0,0,0,997.234,571c0-19.4-16.741-35.117-37.393-35.117a39.365,39.365,0,0,0-14.331,2.683,34.263,34.263,0,0,0-22.623-10.018,44.578,44.578,0,0,0,.891-8.826c0-26.014-22.46-47.1-50.165-47.1-19.444,0-36.292,10.395-44.618,25.583a42.445,42.445,0,0,0-25.218-8.175c-16.976,0-31.535,9.708-37.733,23.534a34.587,34.587,0,0,0-14.64,5.207c-2.113-16.192-16.779-28.741-34.592-28.741a37.2,37.2,0,0,0-6.207.55c-4.961-13.523-18.6-23.258-34.683-23.258-19.491,0-35.386,14.274-36.591,32.292a35.936,35.936,0,0,0-24.653-9.584,35.269,35.269,0,0,0-30.535,16.931,35.394,35.394,0,0,0-30.858,3.38c-4.972-20.624-24.593-36.032-48.065-36.032-22.649,0-41.718,14.35-47.492,33.9a34.508,34.508,0,0,0-8-2.648A69.581,69.581,0,0,0,406.557,490.8c-30.453,0-56.16,19.027-64.415,45.1a35.043,35.043,0,0,0-3.5,6.293c.039-.576.093-1.149.093-1.734,0-15.013-12.958-27.183-28.946-27.183a29.838,29.838,0,0,0-20.246,7.77,36.822,36.822,0,0,0,.828-7.77c0-21.523-18.581-38.973-41.5-38.973A42.726,42.726,0,0,0,219.251,486a31.266,31.266,0,0,0,2.3-11.686c0-18.327-15.823-33.188-35.343-33.188s-35.343,14.861-35.343,33.188l0,.056a41.518,41.518,0,0,0-23.254-7.043c-22.088,0-39.993,16.816-39.993,37.555,0,.956.078,1.892.153,2.826-20.983,2.005-37.356,18.648-37.356,38.877a36.856,36.856,0,0,0,1.83,11.488c-9.451,4.194-16.009,13.2-16.009,23.672a24.7,24.7,0,0,0,1.964,9.614Z" transform="translate(-52.234 509.877)" fill="#88d4f2"/>
        <path id="Path_258-2" data-name="Path 258" d="M1141.43,591.357A30.672,30.672,0,0,0,1149.494,571c0-19.4-19.394-35.117-43.317-35.117a52.026,52.026,0,0,0-16.6,2.683,42.807,42.807,0,0,0-26.208-10.018,38.717,38.717,0,0,0,1.032-8.826c0-26.014-26.018-47.1-58.113-47.1-22.525,0-42.042,10.395-51.687,25.583a54.565,54.565,0,0,0-29.214-8.175c-19.665,0-36.532,9.708-43.712,23.534a44.3,44.3,0,0,0-16.959,5.207c-2.448-16.192-19.437-28.741-40.072-28.741a49.744,49.744,0,0,0-7.191.55c-5.747-13.523-21.544-23.258-40.178-23.258-22.579,0-40.992,14.274-42.389,32.292-7.309-5.921-17.407-9.584-28.559-9.584-15.233,0-28.485,6.84-35.372,16.931a46.923,46.923,0,0,0-13.828-2.084,45.473,45.473,0,0,0-21.919,5.464c-5.76-20.624-28.49-36.032-55.68-36.032-26.238,0-48.328,14.35-55.016,33.9a44.531,44.531,0,0,0-9.268-2.648c-13.528-9.2-30.968-14.755-50.013-14.755-35.278,0-65.058,19.027-74.621,45.1a34,34,0,0,0-4.051,6.293c.045-.576.108-1.149.108-1.734,0-15.013-15.011-27.183-33.532-27.183a37.789,37.789,0,0,0-23.454,7.77,32,32,0,0,0,.959-7.77c0-21.523-21.525-38.973-48.078-38.973-13.44,0-25.587,4.477-34.312,11.686a27.586,27.586,0,0,0,2.659-11.686c0-18.327-18.329-33.188-40.943-33.188s-40.943,14.861-40.943,33.188l0,.056a53.643,53.643,0,0,0-26.938-7.043c-25.587,0-46.33,16.816-46.33,37.555,0,.956.09,1.892.177,2.826-24.307,2.005-43.274,18.648-43.274,38.877a32.287,32.287,0,0,0,2.12,11.488c-10.949,4.194-18.545,13.2-18.545,23.672a21.831,21.831,0,0,0,2.276,9.614Z" transform="translate(827.766 509.877)" fill="#88d4f2"/>
      </g>
    </g>
  </g>
</svg>
